<?xml version="1.0" encoding="UTF-8"?>
<svg id="Ebene_2" data-name="Ebene 2" xmlns="http://www.w3.org/2000/svg" xmlns:xlink="http://www.w3.org/1999/xlink" viewBox="0 0 57.22 76.3">
  <defs>
    <style>
      .cls-1 {
        fill: url(#Unbenannter_Verlauf_27-3);
      }

      .cls-1, .cls-2, .cls-3, .cls-4, .cls-5, .cls-6, .cls-7, .cls-8, .cls-9 {
        stroke-width: 0px;
      }

      .cls-2 {
        fill: url(#Unbenannter_Verlauf_27-2);
      }

      .cls-3 {
        fill: url(#Unbenannter_Verlauf_44);
      }

      .cls-4 {
        fill: url(#Unbenannter_Verlauf_46);
      }

      .cls-5 {
        fill: url(#Unbenannter_Verlauf_41);
      }

      .cls-6 {
        fill: url(#Unbenannter_Verlauf_27);
      }

      .cls-7 {
        fill: url(#Unbenannter_Verlauf_31);
      }

      .cls-8 {
        fill: url(#Unbenannter_Verlauf_42);
      }

      .cls-10 {
        isolation: isolate;
      }

      .cls-9 {
        fill: #fff;
      }
    </style>
    <linearGradient id="Unbenannter_Verlauf_44" data-name="Unbenannter Verlauf 44" x1="40.74" y1="28.85" x2="40.74" y2="53.94" gradientUnits="userSpaceOnUse">
      <stop offset="0" stop-color="#18203a"/>
      <stop offset=".01" stop-color="#393f56"/>
      <stop offset=".04" stop-color="#626779"/>
      <stop offset=".06" stop-color="#878c99"/>
      <stop offset=".09" stop-color="#a8abb5"/>
      <stop offset=".11" stop-color="#c3c5cc"/>
      <stop offset=".15" stop-color="#d9dadf"/>
      <stop offset=".19" stop-color="#eaebed"/>
      <stop offset=".23" stop-color="#f6f6f7"/>
      <stop offset=".3" stop-color="#fdfdfd"/>
      <stop offset=".48" stop-color="#fff"/>
      <stop offset=".53" stop-color="#f8f8f9"/>
      <stop offset=".6" stop-color="#e5e6e9"/>
      <stop offset=".68" stop-color="#c6c8ce"/>
      <stop offset=".78" stop-color="#9b9eaa"/>
      <stop offset=".88" stop-color="#64697a"/>
      <stop offset=".99" stop-color="#212942"/>
      <stop offset="1" stop-color="#18203a"/>
    </linearGradient>
    <linearGradient id="Unbenannter_Verlauf_41" data-name="Unbenannter Verlauf 41" x1="34" y1="15.18" x2="34" y2="36.36" gradientUnits="userSpaceOnUse">
      <stop offset="0" stop-color="#fff"/>
      <stop offset=".38" stop-color="#fdfdfd"/>
      <stop offset=".52" stop-color="#f6f6f7"/>
      <stop offset=".62" stop-color="#eaebed"/>
      <stop offset=".69" stop-color="#d9dadf"/>
      <stop offset=".76" stop-color="#c3c5cc"/>
      <stop offset=".82" stop-color="#a8abb5"/>
      <stop offset=".88" stop-color="#878c99"/>
      <stop offset=".93" stop-color="#626779"/>
      <stop offset=".97" stop-color="#393f56"/>
      <stop offset="1" stop-color="#18203a"/>
    </linearGradient>
    <linearGradient id="Unbenannter_Verlauf_42" data-name="Unbenannter Verlauf 42" x1="16.87" y1="31.69" x2="51.68" y2="31.69" gradientUnits="userSpaceOnUse">
      <stop offset="0" stop-color="#18203a"/>
      <stop offset=".01" stop-color="#393f56"/>
      <stop offset=".04" stop-color="#626779"/>
      <stop offset=".06" stop-color="#878c99"/>
      <stop offset=".09" stop-color="#a8abb5"/>
      <stop offset=".11" stop-color="#c3c5cc"/>
      <stop offset=".15" stop-color="#d9dadf"/>
      <stop offset=".18" stop-color="#eaebed"/>
      <stop offset=".23" stop-color="#f6f6f7"/>
      <stop offset=".3" stop-color="#fdfdfd"/>
      <stop offset=".48" stop-color="#fff"/>
    </linearGradient>
    <linearGradient id="Unbenannter_Verlauf_46" data-name="Unbenannter Verlauf 46" x1="21.79" y1="32.75" x2="21.79" y2="52.42" gradientUnits="userSpaceOnUse">
      <stop offset="0" stop-color="#fff"/>
      <stop offset=".26" stop-color="#fcfcfc"/>
      <stop offset=".4" stop-color="#f4f4f6"/>
      <stop offset=".51" stop-color="#e6e7ea"/>
      <stop offset=".61" stop-color="#d3d4d9"/>
      <stop offset=".7" stop-color="#b9bcc4"/>
      <stop offset=".78" stop-color="#9a9ea9"/>
      <stop offset=".86" stop-color="#757a89"/>
      <stop offset=".93" stop-color="#4b5165"/>
      <stop offset="1" stop-color="#1b233d"/>
      <stop offset="1" stop-color="#18203a"/>
    </linearGradient>
    <linearGradient id="Unbenannter_Verlauf_31" data-name="Unbenannter Verlauf 31" x1="28.63" y1="38.93" x2="28.63" y2="42.81" gradientUnits="userSpaceOnUse">
      <stop offset=".32" stop-color="#fff"/>
      <stop offset="1" stop-color="#18203a"/>
    </linearGradient>
    <linearGradient id="Unbenannter_Verlauf_27" data-name="Unbenannter Verlauf 27" x1="28.66" y1="43.37" x2="28.71" y2="47.95" gradientUnits="userSpaceOnUse">
      <stop offset="0" stop-color="#fff"/>
      <stop offset="1" stop-color="#18203a"/>
    </linearGradient>
    <linearGradient id="Unbenannter_Verlauf_27-2" data-name="Unbenannter Verlauf 27" x1="7015.61" y1="41.08" x2="7016.45" y2="42.6" gradientTransform="translate(7049.44) rotate(-180) scale(1 -1)" xlink:href="#Unbenannter_Verlauf_27"/>
    <linearGradient id="Unbenannter_Verlauf_27-3" data-name="Unbenannter Verlauf 27" x1="6.01" y1="41.08" x2="6.86" y2="42.6" gradientTransform="translate(17.42)" xlink:href="#Unbenannter_Verlauf_27"/>
  </defs>
  <g id="Ebene_1-2" data-name="Ebene 1">
    <g>
      <g>
        <g>
          <g class="cls-10">
            <g>
              <line class="cls-9" x1="41.94" y1="35.81" x2="41.11" y2="33.86"/>
              <polyline class="cls-3" points="42.23 46.83 41.62 47.14 35.11 34.16 37.62 33.95 41.11 33.86 45.91 43.42 46.38 44.28"/>
            </g>
          </g>
          <polygon class="cls-5" points="38.47 29.36 39.08 29.36 31.9 15.05 28.91 22.28 32.46 29.36 33.08 29.36 33.08 29.36 37.85 29.36 38.14 29.36 38.47 29.36 38.47 29.36 38.47 29.36"/>
          <polygon class="cls-8" points="24.32 28.81 24.05 29.36 24.05 29.36 21.86 33.47 21.69 33.79 21.26 34.57 44.14 34.56 56.07 28.81 24.32 28.81"/>
          <polygon class="cls-4" points="28.62 8.52 11.02 42.84 11.41 43.29 14.71 46.38 14.71 46.38 15.57 47.11 28.61 21.68 29.56 23.59 32.55 16.35 28.62 8.52"/>
          <path class="cls-9" d="M53.66,28.81v.55h0l-11.26,4.1h-1.51v1.1h8.93c-.97,3.65-2.86,6.92-5.62,9.73-4.27,4.29-9.57,6.47-15.77,6.47-5.72,0-10.84-2.13-15.19-6.34-4.39-4.21-6.62-9.66-6.62-16.17s2.15-11.52,6.39-15.76c4.23-4.28,9.5-6.46,15.64-6.46s11.43,2.18,15.62,6.47c1.58,1.6,2.88,3.37,3.87,5.27l.3.57,5.17-3.81-.26-.43c-1.23-2.04-2.75-3.96-4.52-5.73C43.27,2.82,36.52,0,28.76,0S14.07,2.79,8.47,8.3C2.85,13.8,0,20.48,0,28.14c0,8.86,3.03,15.81,9.27,21.26,5.61,4.88,12.01,7.35,19.05,7.35,7.96,0,14.85-2.78,20.48-8.27,5.37-5.23,8.2-11.66,8.41-19.11l.02-.57h-3.56Z"/>
        </g>
        <g>
          <path class="cls-7" d="M27.34,42.44l-.65-.07c.26-2.32,1.63-4.07,1.69-4.14l.26-.32.26.32c.06.07,1.39,1.78,1.68,4.05l-.65.08c-.19-1.51-.9-2.77-1.28-3.36-.39.61-1.12,1.91-1.3,3.44Z"/>
          <g>
            <path class="cls-6" d="M34.11,39.93l-.04-.41-.39.13c-.11.04-2.66.91-4.13,3.16-.44.68-.73,1.4-.92,2.08-.19-.68-.47-1.4-.92-2.08-1.46-2.24-4.02-3.12-4.13-3.16l-.39-.13-.04.41c0,.05-.11,1.34.29,2.88l.63-.17c-.24-.9-.28-1.73-.28-2.21.76.33,2.37,1.19,3.37,2.73.96,1.47,1.12,3.19,1.14,4.07,0,.11,0,.22,0,.31,0,.16-.01.26-.01.26h.02s0,.05,0,.06l.31-.03.31.03s0-.03,0-.06h.02s0-.1-.01-.26c0-.09,0-.19,0-.31.02-.87.18-2.6,1.14-4.07,1.01-1.54,2.62-2.39,3.37-2.73,0,.48-.05,1.31-.28,2.21l.63.17c.4-1.54.29-2.83.29-2.88Z"/>
            <path class="cls-2" d="M33.47,40.43c0,.48-.05,1.31-.28,2.21l.63.17c.4-1.54.29-2.83.29-2.88l-.04-.41-.39.13"/>
            <path class="cls-1" d="M23.79,40.43c0,.48.05,1.31.28,2.21l-.63.17c-.4-1.54-.29-2.83-.29-2.88l.04-.41.39.13"/>
          </g>
          <path class="cls-9" d="M28.49,48.15c-.63,0-2.93-.1-4.82-1.47-2.17-1.57-2.93-4.16-2.96-4.27l-.11-.4.41-.02c.12,0,2.81-.1,4.98,1.47,2.17,1.57,2.93,4.16,2.96,4.27l.11.4-.41.02s-.07,0-.16,0ZM21.48,42.65c.3.77,1.08,2.43,2.56,3.5,1.49,1.07,3.3,1.29,4.13,1.33-.3-.77-1.08-2.43-2.56-3.5-1.49-1.07-3.3-1.29-4.13-1.33Z"/>
          <path class="cls-9" d="M28.78,48.15c-.09,0-.15,0-.16,0l-.41-.02.11-.4c.03-.11.79-2.7,2.96-4.27,2.17-1.57,4.87-1.47,4.98-1.47l.41.02-.11.4c-.03.11-.79,2.7-2.96,4.27-1.9,1.37-4.2,1.47-4.82,1.47ZM35.79,42.65c-.83.04-2.64.26-4.13,1.33-1.49,1.07-2.26,2.73-2.56,3.5.83-.04,2.64-.26,4.13-1.33,1.49-1.07,2.26-2.73,2.56-3.5Z"/>
        </g>
      </g>
      <g>
        <path class="cls-9" d="M8.34,61.8v6.71h-1.01v-6.71h1.01Z"/>
        <path class="cls-9" d="M12.62,68.51v-7.17l4.9,5.12v-4.66h1.01v7.12l-4.89-5.11v4.7h-1.01Z"/>
        <path class="cls-9" d="M23.15,61.8l1.86,4.65,1.88-4.65h1.11l-3.01,7.22-2.94-7.22h1.11Z"/>
        <path class="cls-9" d="M35.21,62.75h-2.69v1.61h2.61v.95h-2.61v2.24h2.69v.95h-3.7v-6.71h3.7v.95Z"/>
        <path class="cls-9" d="M43,62.8l-.82.49c-.15-.27-.3-.44-.44-.52-.15-.09-.33-.14-.56-.14-.28,0-.51.08-.7.24-.19.16-.28.35-.28.59,0,.33.24.59.73.79l.67.27c.54.22.94.49,1.2.81.25.32.38.71.38,1.17,0,.62-.21,1.13-.62,1.53-.41.41-.93.61-1.54.61-.58,0-1.06-.17-1.44-.52-.37-.34-.61-.83-.7-1.46l1.03-.23c.05.39.13.67.24.82.21.29.51.43.91.43.32,0,.58-.11.79-.32.21-.21.31-.48.31-.8,0-.13-.02-.25-.05-.36-.04-.11-.09-.21-.17-.3-.08-.09-.18-.18-.3-.26s-.27-.16-.43-.23l-.65-.27c-.92-.39-1.38-.96-1.38-1.7,0-.5.19-.93.58-1.27.39-.34.87-.51,1.44-.51.77,0,1.38.38,1.81,1.13Z"/>
        <path class="cls-9" d="M49.05,62.75v5.76h-1.01v-5.76h-1.54v-.95h4.09v.95h-1.54Z"/>
        <path class="cls-9" d="M20.44,72.9l-.48.28c-.09-.16-.17-.26-.26-.3-.08-.05-.19-.08-.33-.08-.16,0-.3.05-.41.14-.11.09-.16.21-.16.34,0,.19.14.34.43.46l.39.16c.32.13.55.28.7.47.15.18.22.41.22.68,0,.36-.12.66-.36.89-.24.24-.54.36-.9.36-.34,0-.62-.1-.84-.3-.22-.2-.35-.48-.41-.85l.6-.13c.03.23.07.39.14.48.12.17.3.25.53.25.18,0,.34-.06.46-.18s.18-.28.18-.47c0-.08-.01-.15-.03-.21-.02-.06-.05-.12-.1-.17-.04-.05-.1-.1-.17-.15-.07-.05-.16-.09-.25-.13l-.38-.16c-.54-.23-.8-.56-.8-.99,0-.29.11-.54.34-.74.22-.2.5-.3.84-.3.45,0,.8.22,1.06.66Z"/>
        <path class="cls-9" d="M22.37,73.84h1.69v-1.53h.59v3.91h-.59v-1.83h-1.69v1.83h-.59v-3.91h.59v1.53Z"/>
        <path class="cls-9" d="M26.08,75.94c0-.09.03-.18.1-.25s.15-.1.25-.1.18.04.25.1.1.15.1.25-.03.18-.1.25-.15.1-.25.1-.18-.03-.25-.1c-.07-.07-.1-.15-.1-.25Z"/>
        <path class="cls-9" d="M29.07,74.64v1.59h-.59v-3.91h.67c.33,0,.57.02.74.07.17.04.32.13.45.26.22.22.34.5.34.83,0,.36-.12.64-.36.85-.24.21-.56.31-.97.31h-.27ZM29.07,74.09h.22c.54,0,.81-.21.81-.63s-.28-.61-.84-.61h-.19v1.23Z"/>
        <path class="cls-9" d="M31.34,75.94c0-.09.03-.18.1-.25s.15-.1.25-.1.18.04.25.1.1.15.1.25-.03.18-.1.25-.15.1-.25.1-.18-.03-.25-.1c-.07-.07-.1-.15-.1-.25Z"/>
        <path class="cls-9" d="M34.94,73.88l1.52-1.56h.79l-1.77,1.77,1.78,2.14h-.79l-1.41-1.74-.12.12v1.62h-.59v-3.91h.59v1.56Z"/>
        <path class="cls-9" d="M38.29,75.94c0-.09.03-.18.1-.25s.15-.1.25-.1.18.04.25.1.1.15.1.25-.03.18-.1.25-.15.1-.25.1-.18-.03-.25-.1c-.07-.07-.1-.15-.1-.25Z"/>
      </g>
    </g>
  </g>
</svg>